:version 1.10
:name ASF
:units
  mass 1
  length 1
  angle deg
:documentation
  ASF file generated by Kaydara
:root
  axis xyz
  order  tx ty tz rx ry rz
  position 0 0 0
  orientation 0 0 0
:bonedata
  begin
    id 1
    name SpineDummy
    direction 0.999998 -0.00179978 1.38929e-006
    length 3.60008
    axis 0 0 0 xyz
  end
  begin
    id 2
    name Spine
    direction 0.964365 0.262802 0.0305839
    length 8.13928
    axis 1.33928 -1.75354 15.2838 xyz
    dof rx ry rz
  end
  begin
    id 3
    name Spine1
    direction 0.811168 0.572065 0.12144
    length 7.14954
    axis 2.2224 -6.9761 35.2157 xyz
    dof rx ry rz
  end
  begin
    id 4
    name Neck
    direction 0 0 0
    length 0
    axis 2.2224 -6.9761 35.2157 xyz
    dof rx ry rz
  end
  begin
    id 5
    name HeadDummy
    direction 0.810939 0.572387 0.121455
    length 3.55534
    axis 2.2224 -6.9761 35.2157 xyz
  end
  begin
    id 6
    name Head
    direction 0.998226 -0.000232542 0.0595419
    length 7.35666
    axis -3.03688 -3.41352 -0.0133467 xyz
    dof rx ry rz
  end
  begin
    id 7
    name R_ClavicleDummy
    direction 0.531669 -0.194489 -0.824319
    length 2.49392
    axis 2.2224 -6.9761 35.2157 xyz
  end
  begin
    id 8
    name R_Clavicle
    direction -0.155119 0.0480802 -0.986725
    length 4.485
    axis -54.2764 80.6538 162.779 xyz
    dof rx ry rz
  end
  begin
    id 9
    name R_UpperArm
    direction -0.955567 0.200068 -0.216484
    length 10.1122
    axis -72.9943 12.5026 168.175 xyz
    dof rx ry rz
  end
  begin
    id 10
    name R_Forearm
    direction -0.61433 0.385743 0.688332
    length 9.39148
    axis -117.015 -43.4982 147.875 xyz
    dof rx ry rz
  end
  begin
    id 11
    name R_Hand
    direction -0.699429 0.0170333 0.714499
    length 3.66324
    axis -45.0303 -36.7097 175.478 xyz
    dof rx ry rz
  end
  begin
    id 12
    name L_ClavicleDummy
    direction 0.40287 -0.36502 0.839319
    length 2.49392
    axis 2.2224 -6.9761 35.2157 xyz
  end
  begin
    id 13
    name L_Clavicle
    direction -0.231271 -0.0726419 0.970174
    length 4.485
    axis 18.4357 -75.9711 -162.563 xyz
    dof rx ry rz
  end
  begin
    id 14
    name L_UpperArm
    direction -0.917494 0.144359 0.370629
    length 10.1122
    axis 56.0417 -21.7544 171.058 xyz
    dof rx ry rz
  end
  begin
    id 15
    name L_Forearm
    direction -0.496786 0.615074 -0.612281
    length 9.39148
    axis 89.8094 37.7546 128.927 xyz
    dof rx ry rz
  end
  begin
    id 16
    name L_Hand
    direction -0.409932 0.64962 -0.640274
    length 3.66324
    axis -0.424369 32.133 128.52 xyz
    dof rx ry rz
  end
  begin
    id 17
    name L_ThighDummy
    direction -1.84081e-006 1.87549e-006 1
    length 3.13049
    axis 0 0 0 xyz
  end
  begin
    id 18
    name L_Thigh
    direction -0.947739 0.307978 0.083308
    length 17.9961
    axis 173.219 -4.77873 161.998 xyz
    dof rx ry rz
  end
  begin
    id 19
    name L_Calf
    direction -0.728814 -0.684427 0.0197583
    length 13.3367
    axis 167.331 -1.13214 -136.799 xyz
    dof rx ry rz
  end
  begin
    id 20
    name L_Foot
    direction -0.9028 0.418719 0.0981191
    length 5.8674
    axis 163.436 11.5135 -155.37 xyz
    dof rx ry rz
  end
  begin
    id 21
    name L_Toe0
    direction -0.35341 0.886259 0.299411
    length 4.75286
    axis 169.316 -17.4222 111.74 xyz
    dof rx ry rz
  end
  begin
    id 22
    name R_ThighDummy
    direction 9.32778e-007 -8.82053e-007 -1
    length 3.13049
    axis 0 0 0 xyz
  end
  begin
    id 23
    name R_Thigh
    direction -0.925064 0.37528 -0.0585023
    length 17.9961
    axis -178.698 3.35385 157.919 xyz
    dof rx ry rz
  end
  begin
    id 24
    name R_Calf
    direction -0.68969 -0.718776 -0.0876886
    length 13.3367
    axis -160.504 5.03065 -133.817 xyz
    dof rx ry rz
  end
  begin
    id 25
    name R_Foot
    direction -0.857405 0.418858 -0.299022
    length 5.8674
    axis -161.328 4.38911 -154.413 xyz
    dof rx ry rz
  end
  begin
    id 26
    name R_Toe0
    direction -0.100745 0.952789 -0.286433
    length 4.75286
    axis 171.683 16.6445 96.0359 xyz
    dof rx ry rz
  end
:hierarchy
  begin
    root SpineDummy L_ThighDummy R_ThighDummy
    SpineDummy Spine
    Spine Spine1
    Spine1 Neck
    Neck HeadDummy R_ClavicleDummy L_ClavicleDummy
    HeadDummy Head
    R_ClavicleDummy R_Clavicle
    R_Clavicle R_UpperArm
    R_UpperArm R_Forearm
    R_Forearm R_Hand
    L_ClavicleDummy L_Clavicle
    L_Clavicle L_UpperArm
    L_UpperArm L_Forearm
    L_Forearm L_Hand
    L_ThighDummy L_Thigh
    L_Thigh L_Calf
    L_Calf L_Foot
    L_Foot L_Toe0
    R_ThighDummy R_Thigh
    R_Thigh R_Calf
    R_Calf R_Foot
    R_Foot R_Toe0
  end

:SAMPLES-PER-SECOND 30
:FULLY-SPECIFIED
:DEGREES
1
root  1.52357 33.6759 2.32079 -88.147 -0.145302 89.4547
Spine  -1.02357 -2.13834 -28.4072
Spine1  -0.9202 9.50902 -0.744416
Neck  3.97569e-016 0 -2.38542e-015
Head  0.954283 -3.08349 19.9941
R_Clavicle  0.497974 -18.4183 4.28394
R_UpperArm  41.1956 -7.36647 32.7781
R_Forearm  10.5291 -35.8184 24.0841
R_Hand  -1.00637 9.22649 -19.1105
L_Clavicle  -0.48517 18.8056 1.93324
L_UpperArm  -5.19694 11.4843 17.3719
L_Forearm  -0.0681364 34.2889 37.3645
L_Hand  -0.0734635 0.915646 -1.23871
L_Thigh  -1.95772 2.9798 -15.4022
L_Calf  -4.89248 -8.25176 42.8984
L_Foot  2.38622 10.4264 -0.546747
L_Toe0  0.505156 0.0366418 -6.13608
R_Thigh  1.99929 1.66857 -14.6909
R_Calf  2.42606 13.6653 43.415
R_Foot  -0.345998 -3.35019 -4.29189
R_Toe0  -1.78853 -0.284153 -17.3232
2
root  1.51529 33.6755 2.29453 -88.21 -0.196879 89.4446
Spine  -1.00255 -2.10251 -28.3816
Spine1  -0.894638 9.49418 -0.712072
Neck  3.97569e-016 0 -2.38542e-015
Head  0.995127 -3.14214 19.8757
R_Clavicle  0.4962 -18.5368 4.29963
R_UpperArm  41.851 -7.47062 32.796
R_Forearm  9.38567 -36.7901 24.629
R_Hand  -0.999672 9.38158 -19.0808
L_Clavicle  -0.486563 18.9453 1.94289
L_UpperArm  -5.75945 11.6586 17.5546
L_Forearm  0.726034 34.8216 37.5371
L_Hand  -0.0791155 1.11985 -1.28981
L_Thigh  -1.93051 2.97314 -15.5343
L_Calf  -4.97574 -8.26649 42.9387
L_Foot  2.39456 10.4161 -0.517591
L_Toe0  0.505156 0.0366418 -6.13608
R_Thigh  2.01221 1.64484 -14.7775
R_Calf  2.3576 13.647 43.4017
R_Foot  -0.347908 -3.32978 -4.24308
R_Toe0  -1.78853 -0.284153 -17.3232
3
root  1.50012 33.674 2.23775 -88.2648 -0.318823 89.4357
Spine  -0.959149 -2.03793 -28.2399
Spine1  -0.856133 9.48576 -0.758772
Neck  3.97569e-016 0 -2.38542e-015
Head  0.734824 -3.19718 19.8221
R_Clavicle  0.491703 -18.6888 4.25458
R_UpperArm  42.7067 -7.87947 33.0718
R_Forearm  7.288 -38.3562 25.748
R_Hand  -0.949246 9.51121 -18.7429
L_Clavicle  -0.490668 19.1836 1.8979
L_UpperArm  -7.20121 12.0513 18.0005
L_Forearm  2.83711 36.0469 37.9923
L_Hand  -0.072373 1.21658 -1.14837
L_Thigh  -1.92028 2.98086 -15.8115
L_Calf  -5.02355 -8.28565 43.0237
L_Foot  2.41339 10.4106 -0.451291
L_Toe0  0.505156 0.0366418 -6.13608
R_Thigh  2.0183 1.61254 -15.0031
R_Calf  2.28395 13.6146 43.416
R_Foot  -0.346883 -3.27584 -4.15615
R_Toe0  -1.78853 -0.284153 -17.3232
4
root  1.48361 33.6708 2.17466 -88.1762 -0.40597 89.4527
Spine  -0.963008 -2.02029 -28.2038
Spine1  -0.85193 9.55384 -0.680355
Neck  3.97569e-016 0 -2.38542e-015
Head  0.621491 -3.19963 19.829
R_Clavicle  0.486411 -18.7725 4.13989
R_UpperArm  43.2296 -8.48658 33.4656
R_Forearm  5.32818 -39.7548 27.1592
R_Hand  -0.874875 9.50815 -18.2203
L_Clavicle  -0.495732 19.3504 1.80015
L_UpperArm  -9.27239 12.5319 18.5674
L_Forearm  5.67955 37.596 38.7098
L_Hand  -0.0460433 1.07879 -0.730107
L_Thigh  -1.94333 2.99588 -15.9981
L_Calf  -4.91264 -8.25061 43.0265
L_Foot  2.43994 10.4025 -0.352148
L_Toe0  0.505156 0.0366418 -6.13608
R_Thigh  2.03534 1.59461 -15.2259
R_Calf  2.31519 13.6146 43.4345
R_Foot  -0.344877 -3.20866 -4.05222
R_Toe0  -1.78853 -0.284153 -17.3232
5
root  1.46892 33.6627 2.12163 -88.0145 -0.387061 89.5011
Spine  -1.03898 -1.95655 -28.3985
Spine1  -0.88216 9.53483 -0.356249
Neck  3.97569e-016 0 -2.38542e-015
Head  0.941334 -3.1503 19.765
R_Clavicle  0.481317 -18.891 4.0459
R_UpperArm  43.544 -9.05177 33.7306
R_Forearm  4.26622 -40.8329 28.5562
R_Hand  -0.785585 9.75173 -17.6418
L_Clavicle  -0.49697 19.2987 1.73748
L_UpperArm  -11.3467 13.0241 19.1477
L_Forearm  8.36083 39.0699 39.5669
L_Hand  -0.0179367 0.889063 -0.265397
L_Thigh  -1.9825 3.00771 -15.9633
L_Calf  -4.72352 -8.15099 42.8468
L_Foot  2.47566 10.3599 -0.196762
L_Toe0  0.505156 0.0366418 -6.13608
R_Thigh  2.08122 1.59513 -15.3046
R_Calf  2.40836 13.6525 43.3753
R_Foot  -0.34908 -3.14956 -3.91791
R_Toe0  -1.78853 -0.284153 -17.3232
6
root  1.456 33.6532 2.07092 -87.9839 -0.340362 89.5626
Spine  -1.12852 -1.61489 -28.5743
Spine1  -0.900953 9.11675 -0.0400527
Neck  3.97569e-016 0 -2.38542e-015
Head  1.35157 -3.09194 19.6724
R_Clavicle  0.47586 -19.1128 3.99081
R_UpperArm  43.7053 -9.58561 33.9295
R_Forearm  4.17799 -41.6099 29.5095
R_Hand  -0.646673 10.4866 -16.8626
L_Clavicle  -0.493778 19.0111 1.71052
L_UpperArm  -12.9251 13.55 19.8577
L_Forearm  10.5241 40.2676 40.3978
L_Hand  -0.0046032 0.802393 -0.0360904
L_Thigh  -2.04514 3.03749 -15.9118
L_Calf  -4.60948 -8.06911 42.6435
L_Foot  2.51602 10.2999 -0.00918462
L_Toe0  0.505156 0.0366418 -6.13608
R_Thigh  2.10764 1.61601 -15.3283
R_Calf  2.42203 13.6685 43.3002
R_Foot  -0.354689 -3.09881 -3.78766
R_Toe0  -1.78853 -0.284153 -17.3232
7
root  1.44084 33.6499 2.01041 -88.1421 -0.36715 89.6079
Spine  -1.16286 -0.991335 -28.5336
Spine1  -0.862647 8.33627 0.112224
Neck  3.97569e-016 0 -2.38542e-015
Head  1.65531 -3.1224 19.6232
R_Clavicle  0.470248 -19.29 3.89541
R_UpperArm  43.3198 -10.2263 34.1877
R_Forearm  4.65419 -41.9629 29.6207
R_Hand  -0.456017 11.2858 -15.8418
L_Clavicle  -0.49206 18.7333 1.6249
L_UpperArm  -14.0015 14.028 20.8646
L_Forearm  12.2722 41.1571 41.1213
L_Hand  -0.00217727 0.831644 0.00846241
L_Thigh  -2.12743 3.08997 -16.0814
L_Calf  -4.6507 -8.08996 42.6526
L_Foot  2.54882 10.2825 0.117633
L_Toe0  0.505156 0.0366418 -6.13608
R_Thigh  2.08355 1.64255 -15.4616
R_Calf  2.2955 13.6321 43.3419
R_Foot  -0.353952 -3.05791 -3.71944
R_Toe0  -1.78853 -0.284153 -17.3232
8
root  1.41943 33.6505 1.9505 -88.3578 -0.418448 89.621
Spine  -1.11736 -0.413289 -28.4224
Spine1  -0.751722 7.65806 0.274389
Neck  3.97569e-016 0 -2.38542e-015
Head  2.14471 -3.3435 19.5041
R_Clavicle  0.466115 -19.3029 3.75141
R_UpperArm  42.4234 -10.8439 34.3642
R_Forearm  4.98965 -41.8261 28.8483
R_Hand  -0.283001 11.537 -14.8351
L_Clavicle  -0.495224 18.766 1.51923
L_UpperArm  -14.8887 14.2826 22.0555
L_Forearm  13.6683 41.7591 41.7501
L_Hand  0.00699801 0.878658 0.172591
L_Thigh  -2.18568 3.11659 -16.3457
L_Calf  -4.82898 -8.1878 42.7953
L_Foot  2.56931 10.3137 0.161869
L_Toe0  0.505156 0.0366418 -6.13608
R_Thigh  2.07345 1.63365 -15.6241
R_Calf  2.0917 13.5874 43.4241
R_Foot  -0.353461 -3.0336 -3.6791
R_Toe0  -1.78853 -0.284153 -17.3232
9
root  1.39263 33.6469 1.91321 -88.5247 -0.359808 89.6138
Spine  -1.00516 -0.101467 -28.3159
Spine1  -0.599755 7.33132 0.393567
Neck  3.97569e-016 0 -2.38542e-015
Head  2.82133 -3.72368 19.2324
R_Clavicle  0.463392 -19.3237 3.66177
R_UpperArm  41.2762 -11.1551 34.32
R_Forearm  5.08159 -41.2845 27.5024
R_Hand  -0.185033 11.1706 -14.0853
L_Clavicle  -0.497407 19.0334 1.59183
L_UpperArm  -15.8255 14.3928 23.1558
L_Forearm  14.7516 42.0913 42.2953
L_Hand  0.0258661 0.77949 0.506068
L_Thigh  -2.1974 3.07675 -16.3997
L_Calf  -5.03713 -8.26167 42.8055
L_Foot  2.59346 10.3369 0.225209
L_Toe0  0.505156 0.0366418 -6.13608
R_Thigh  2.12131 1.57532 -15.5941
R_Calf  1.89506 13.566 43.3796
R_Foot  -0.357997 -3.00998 -3.60407
R_Toe0  -1.78853 -0.284153 -17.3232
10
root  1.36388 33.6425 1.90279 -88.6236 -0.140574 89.6154
Spine  -0.866152 0.111569 -28.0308
Spine1  -0.467377 7.04609 0.0850772
Neck  3.97569e-016 0 -2.38542e-015
Head  3.19308 -4.08679 18.9771
R_Clavicle  0.46029 -19.587 3.68437
R_UpperArm  39.8737 -11.1237 34.1395
R_Forearm  5.39187 -40.4912 25.9517
R_Hand  -0.145868 10.528 -13.5715
L_Clavicle  -0.491017 19.19 1.88873
L_UpperArm  -16.7067 14.6307 24.1592
L_Forearm  15.4208 42.1267 42.6767
L_Hand  0.0343247 0.485584 0.674533
L_Thigh  -2.1834 2.98818 -16.1873
L_Calf  -5.15233 -8.26372 42.6968
L_Foot  2.62783 10.3388 0.341109
L_Toe0  0.505156 0.0366418 -6.13608
R_Thigh  2.16696 1.51332 -15.3522
R_Calf  1.7598 13.5521 43.304
R_Foot  -0.354028 -2.96894 -3.55785
R_Toe0  -1.78853 -0.284153 -17.3232
11
root  1.33351 33.6458 1.9016 -88.6008 0.182695 89.6397
Spine  -0.742036 0.41956 -27.6269
Spine1  -0.373341 6.52366 -0.572515
Neck  3.97569e-016 0 -2.38542e-015
Head  3.23984 -4.33843 18.9023
R_Clavicle  0.455609 -20.0258 3.76022
R_UpperArm  37.9688 -10.8897 33.8101
R_Forearm  6.30896 -39.5151 24.5656
R_Hand  -0.126807 9.91019 -13.1685
L_Clavicle  -0.481978 19.2256 2.20899
L_UpperArm  -17.2832 14.92 25.2454
L_Forearm  15.2415 41.8967 42.8231
L_Hand  0.0238835 0.251778 0.481101
L_Thigh  -2.1284 2.886 -15.8699
L_Calf  -5.17739 -8.23609 42.6872
L_Foot  2.65094 10.3676 0.395974
L_Toe0  0.505156 0.0366418 -6.13608
R_Thigh  2.18513 1.4758 -15.0666
R_Calf  1.74926 13.5764 43.3908
R_Foot  -0.336741 -2.93361 -3.61703
R_Toe0  -1.78853 -0.284153 -17.3232
12
root  1.3007 33.6531 1.8902 -88.3809 0.508983 89.6603
Spine  -0.605751 0.654933 -27.4595
Spine1  -0.249144 6.03812 -0.943281
Neck  3.97569e-016 0 -2.38542e-015
Head  3.55815 -4.57661 18.9276
R_Clavicle  0.451925 -20.3348 3.81392
R_UpperArm  35.9525 -10.499 33.106
R_Forearm  7.43112 -38.4286 23.5181
R_Hand  -0.0817588 9.51662 -12.6661
L_Clavicle  -0.476986 19.4243 2.42669
L_UpperArm  -17.5887 14.9365 26.2726
L_Forearm  14.1267 41.5648 42.818
L_Hand  0.00807467 0.368741 0.175898
L_Thigh  -1.98633 2.77957 -15.5721
L_Calf  -5.18112 -8.22988 42.7889
L_Foot  2.65199 10.4379 0.340983
L_Toe0  0.505156 0.0366418 -6.13608
R_Thigh  2.25315 1.40392 -14.8561
R_Calf  1.92936 13.7129 43.5496
R_Foot  -0.325032 -2.9254 -3.68592
R_Toe0  -1.78853 -0.284153 -17.3232
